<!-- Generated by IcoMoon.io -->
<svg version="1.1" xmlns="http://www.w3.org/2000/svg" width="32" height="32" viewBox="0 0 32 32">
<path d="M11.2 28.8h-6.4c-0.48 0-0.8-0.16-1.12-0.48s-0.48-0.64-0.48-1.12v-22.4c0-0.48 0.16-0.8 0.48-1.12s0.64-0.48 1.12-0.48h6.4c0.96 0 1.6-0.64 1.6-1.6s-0.64-1.6-1.6-1.6h-6.4c-1.28 0-2.56 0.48-3.36 1.44s-1.44 2.080-1.44 3.36v22.4c0 1.28 0.48 2.56 1.44 3.36s2.080 1.44 3.36 1.44h6.4c0.96 0 1.6-0.64 1.6-1.6s-0.64-1.6-1.6-1.6zM26.56 14.4h-15.36c-0.96 0-1.6 0.64-1.6 1.6s0.64 1.6 1.6 1.6h15.36l-5.28 5.28c-0.64 0.64-0.64 1.6 0 2.24s1.6 0.64 2.24 0l8-8c0.16-0.16 0.32-0.32 0.32-0.48 0.16-0.64 0.16-1.28-0.32-1.76l-8-8c-0.64-0.64-1.6-0.64-2.24 0s-0.64 1.6 0 2.24l5.28 5.28z"></path>
</svg>
