<!-- Generated by IcoMoon.io -->
<svg version="1.1" xmlns="http://www.w3.org/2000/svg" width="26" height="32" viewBox="0 0 26 32">
<path d="M22.974 22.154l3.282 3.282v1.641h-26.256v-1.641l3.282-3.282v-8.205c0-2.462 0.656-4.759 1.969-6.564s3.118-3.118 5.415-3.61v-1.313c0-0.656 0.164-1.313 0.656-1.805s1.149-0.656 1.805-0.656c0.656 0 1.313 0.164 1.805 0.656s0.656 0.985 0.656 1.805v1.149c2.297 0.492 4.103 1.805 5.415 3.61s1.969 4.267 1.969 6.728v8.205zM13.128 32c-0.985 0-1.641-0.328-2.297-0.985-0.656-0.492-0.985-1.313-0.985-2.297h6.564c0 0.82-0.328 1.641-0.985 2.297s-1.477 0.985-2.297 0.985z"></path>
</svg>
