<!-- Generated by IcoMoon.io -->
<svg version="1.1" xmlns="http://www.w3.org/2000/svg" width="29" height="32" viewBox="0 0 29 32">
<path d="M17.937 12.341l-3.587 2.009-10.045-5.74 3.587-2.009 10.045 5.74zM24.395 8.61l-3.587 2.009-9.901-5.74 2.726-1.578c0.143-0.143 0.287-0.143 0.574-0.143s0.574 0 1.004 0.143l9.184 5.309zM13.776 31.713c0.143 0.143 0.431 0.143 0.717 0.143s0.431 0 0.717-0.143c0.574-0.143 1.004-0.287 1.435-0.574l10.045-5.74c0.861-0.574 1.578-1.291 1.865-2.152 0.143-0.43 0.287-1.004 0.287-1.578v-11.48c0-0.717-0.143-1.291-0.43-1.865 0-0.143-0.143-0.143-0.143-0.287s-0.143-0.144-0.287-0.287c0 0-0.143-0.144-0.143-0.144-0.287-0.431-0.718-0.718-1.148-1.004l-10.045-5.74c-0.861-0.574-1.865-0.718-2.87-0.574-0.574 0.143-1.004 0.287-1.435 0.574l-4.735 2.583c-0.287 0-0.574 0.287-0.861 0.43l-4.592 2.726c-0.43 0.287-1.004 0.718-1.291 1.148-0.143 0.144-0.143 0.287-0.287 0.287 0 0.143-0.143 0.143-0.143 0.287s-0.143 0.287-0.143 0.287c-0.143 0.574-0.287 1.148-0.287 1.722v11.48c0 1.004 0.287 2.009 1.004 2.726 0.287 0.43 0.718 0.718 1.148 1.004l10.045 5.74c0.574 0.287 1.004 0.43 1.578 0.43v0zM12.915 16.933v11.48l-9.327-5.453c-0.143-0.143-0.287-0.143-0.43-0.287-0.143-0.287-0.287-0.574-0.287-0.861v-10.762l10.045 5.883zM15.785 28.413v-11.48l10.045-5.74v10.762c0 0.143 0 0.287-0.143 0.574s-0.287 0.574-0.574 0.718l-9.327 5.166z"></path>
</svg>
