<!-- Generated by IcoMoon.io -->
<svg version="1.1" xmlns="http://www.w3.org/2000/svg" width="29" height="32" viewBox="0 0 29 32">
<path d="M26.428 2.706l-2.388-2.388-2.388 2.388-2.388-2.388-2.388 2.388-2.388-2.388-2.388 2.388-2.388-2.388-2.388 2.388-2.388-2.388v22.289h-4.776v4.776c0 0.955 0.159 1.751 0.637 2.388s0.955 1.274 1.751 1.751 1.592 0.637 2.388 0.637h19.104c0.955 0 1.751-0.159 2.388-0.637 0.796-0.478 1.274-0.955 1.751-1.751s0.637-1.592 0.637-2.388v-27.065l-2.388 2.388zM25.473 27.224c0 0.478-0.159 0.796-0.478 1.114s-0.637 0.478-1.114 0.478-0.796-0.159-1.114-0.478-0.478-0.637-0.478-1.114v-4.776h-14.328v-17.512h17.512v22.289zM9.711 8.119h9.552v3.184h-9.552v-3.184zM20.697 8.119h3.184v3.184h-3.184v-3.184zM9.711 12.896h9.552v3.184h-9.552v-3.184zM20.697 12.896h3.184v3.184h-3.184v-3.184z"></path>
</svg>
