<!-- Generated by IcoMoon.io -->
<svg version="1.1" xmlns="http://www.w3.org/2000/svg" width="32" height="32" viewBox="0 0 32 32">
<path d="M22.448 22.129c0 0 0 0.159 0 0-0.159 0.159-0.159 0.159-0.318 0.318-2.070 1.91-4.776 3.184-7.801 3.184s-5.891-1.274-7.96-3.184-3.184-4.776-3.184-7.801 1.274-5.891 3.184-7.96 4.776-3.343 7.96-3.343 5.891 1.274 7.801 3.343 3.184 4.776 3.184 7.96c0.318 2.706-0.955 5.413-2.866 7.483zM31.522 29.134l-5.891-5.891c1.91-2.388 3.184-5.572 3.184-8.915 0-3.98-1.592-7.483-4.139-10.189s-6.209-4.139-10.189-4.139-7.483 1.592-10.189 4.298-4.139 6.209-4.139 10.030 1.592 7.483 4.139 10.189 6.209 4.139 10.189 4.139c3.343 0 6.527-1.114 8.915-3.184l5.891 5.891c0.637 0.637 1.592 0.637 2.229 0s0.637-1.592 0-2.229z"></path>
</svg>
