<!-- Generated by IcoMoon.io -->
<svg version="1.1" xmlns="http://www.w3.org/2000/svg" width="37" height="32" viewBox="0 0 37 32">
<path d="M16 2.286v-0.571c0-0.914-0.8-1.714-1.714-1.714h-5.714c-0.914 0-1.714 0.8-1.714 1.714v0.571h-6.857v4.571h6.857v0.571c0 0.914 0.8 1.714 1.714 1.714h5.714c0.914 0 1.714-0.8 1.714-1.714v-0.571h20.571v-4.571h-20.571zM9.143 6.857v-4.571h4.571v4.571h-4.571zM29.714 13.143c0-0.914-0.8-1.714-1.714-1.714h-5.714c-0.914 0-1.714 0.8-1.714 1.714v0.571h-20.571v4.571h20.571v0.571c0 0.914 0.8 1.714 1.714 1.714h5.714c0.914 0 1.714-0.8 1.714-1.714v-0.571h6.857v-4.571h-6.857v-0.571zM22.857 18.286v-4.571h4.571v4.571h-4.571zM16 24.571c0-0.914-0.8-1.714-1.714-1.714h-5.714c-0.914 0-1.714 0.8-1.714 1.714v0.571h-6.857v4.571h6.857v0.571c0 0.914 0.8 1.714 1.714 1.714h5.714c0.914 0 1.714-0.8 1.714-1.714v-0.571h20.571v-4.571h-20.571v-0.571zM9.143 29.714v-4.571h4.571v4.571h-4.571z"></path>
</svg>
