<svg viewBox="0 0 100 100" xmlns="http://www.w3.org/2000/svg" style="position:absolute; left:9999px; height:0;"><symbol viewBox="0 0 21.6 26" id="svg-abt--badge"><title>abt--badge</title>
<g>
	<path fill="#FFFFFF" d="M20.7,11.2c0.6-0.6,0.9-1.4,0.8-2.2S20.8,7.5,20,7.2L19.6,7c-0.7-0.3-1.1-1-1-1.8l0.1-0.4
		c0.1-0.8-0.2-1.7-0.9-2.2c-0.7-0.6-1.5-0.7-2.3-0.5L15,2.2c-0.7,0.2-1.5,0-1.9-0.7l-0.2-0.4C12.4,0.4,11.6,0,10.8,0
		C9.9,0,9.2,0.4,8.7,1.1L8.5,1.5C8,2.2,7.3,2.4,6.5,2.2L6.1,2.1C5.3,1.8,4.4,2,3.8,2.5c-0.7,0.6-1,1.4-0.9,2.2L3,5.2
		C3.1,6,2.7,6.7,2,7L1.5,7.1C0.7,7.4,0.2,8.1,0,8.9c-0.1,0.8,0.1,1.7,0.8,2.2l0.3,0.3c0.6,0.5,0.7,1.3,0.4,2l-0.2,0.4
		c-0.4,0.8-0.4,1.6,0.1,2.4c0.4,0.7,1.2,1.2,2,1.2h0.4l0,0l-2.4,5.7c-0.1,0.1,0,0.3,0.1,0.4s0.3,0.2,0.4,0.1l3.3-1.1l1.5,3.1
		C6.7,25.9,6.9,26,7,26l0,0c0.2,0,0.3-0.1,0.3-0.2l2.2-5.3l0.1-0.1c0.6-0.5,1.4-0.5,2.1,0l0.1,0.1l2.2,5.3c0.1,0.1,0.2,0.2,0.3,0.2
		l0,0c0.1,0,0.3-0.1,0.4-0.2l1.5-3.1l3.3,1.1c0.1,0,0.3,0,0.4-0.1s0.1-0.3,0.1-0.4l-2.4-5.7l0,0H18c0.9,0,1.6-0.5,2-1.2
		c0.4-0.7,0.4-1.6,0.1-2.4l-0.2-0.4c-0.4-0.7-0.2-1.5,0.4-2L20.7,11.2z M7,24.6L5.7,22c-0.1-0.2-0.3-0.3-0.5-0.2l-2.8,0.9l2.1-5
		c0.4,0.2,0.7,0.6,0.8,1.1l0.1,0.4C5.7,20.1,6.2,20.7,7,21c0.3,0.1,0.6,0.2,0.9,0.2c0.2,0,0.4,0,0.6-0.1L7,24.6z M19.1,22.7
		l-2.8-0.9c-0.2-0.1-0.4,0-0.5,0.2l-1.3,2.7L13,21.1c0.5,0.1,1,0.1,1.5-0.1c0.8-0.3,1.4-0.9,1.6-1.8l0.1-0.4
		c0.1-0.5,0.4-0.9,0.8-1.1L19.1,22.7z M19.9,10.9c-0.8,0.8-1,1.9-0.5,2.9l0.2,0.4c0.3,0.5,0.3,1.1,0,1.6s-0.8,0.8-1.4,0.8h-0.4
		c-1.1,0-2.1,0.8-2.3,1.9l-0.1,0.4c-0.1,0.6-0.5,1-1.1,1.2s-1.1,0.1-1.6-0.2l-0.3-0.3c-0.9-0.7-2.1-0.7-3,0L8.9,20
		c-0.5,0.4-1,0.5-1.6,0.2C6.7,20,6.4,19.6,6.2,19l-0.1-0.4c-0.2-1.1-1.2-1.9-2.3-1.9H3.4c-0.6,0-1.1-0.3-1.4-0.8s-0.3-1.1,0-1.6
		l0.2-0.4c0.5-1,0.3-2.2-0.5-2.9l-0.3-0.3C1,10.3,0.8,9.8,0.9,9.2s0.5-1,1-1.3l0.4-0.2c1-0.4,1.7-1.5,1.5-2.6L3.7,4.6
		C3.6,4,3.8,3.5,4.3,3.1c0.3-0.2,0.7-0.4,1-0.4c0.2,0,0.4,0,0.5,0.1l0.4,0.1c1.1,0.3,2.2-0.1,2.8-1l0.2-0.4C9.5,1,10,0.7,10.6,0.7
		c0.6,0,1.1,0.3,1.4,0.8l0.2,0.4c0.6,1,1.7,1.4,2.8,1l0.4-0.1C16,2.6,16.5,2.7,17,3.1s1,0.9,0.9,1.5L17.8,5
		c-0.1,1.1,0.5,2.2,1.5,2.6l0.4,0.2c0.6,0.2,0.9,0.7,1,1.3c0.1,0.6-0.1,1.1-0.5,1.5L19.9,10.9z"/>
	<path fill="#FFFFFF" d="M13.4,7.3c-0.3,0-0.7,0.2-0.9,0.4L10,10.6l-1-1C8.6,9,7.8,9,7.2,9.5C7,9.7,6.8,10,6.8,10.4
		c0,0.3,0.1,0.7,0.3,0.9L9,13.4c0.2,0.3,0.6,0.4,1,0.4l0,0c0.4,0,0.7-0.2,1-0.5l3.4-3.9c0.5-0.5,0.4-1.3-0.1-1.8
		C14,7.4,13.7,7.3,13.4,7.3z M13.9,8.9l-3.4,4l0,0c-0.1,0.1-0.2,0.2-0.4,0.2S9.8,13,9.7,12.9l-1.9-2.1l0,0c-0.1-0.1-0.1-0.2-0.1-0.4
		c0-0.1,0.1-0.3,0.2-0.4C7.8,10,8,9.9,8.1,9.9s0.3,0.1,0.4,0.2l1.3,1.4c0.1,0.1,0.2,0.1,0.3,0.1s0.2-0.1,0.3-0.1l2.8-3.2
		C13.3,8,13.6,8,13.8,8.2C13.9,8.3,14,8.4,14,8.5C14,8.7,13.9,8.8,13.9,8.9z"/>
	<path fill="#FFFFFF" d="M10.8,4.1c-3.6,0-6.5,2.9-6.5,6.5s2.9,6.5,6.5,6.5s6.5-2.9,6.5-6.5S14.4,4.1,10.8,4.1z M10.8,16.3
		c-3.2,0-5.8-2.6-5.8-5.7c0-3.2,2.6-5.7,5.8-5.7s5.8,2.6,5.8,5.7C16.5,13.7,14,16.3,10.8,16.3z"/>
</g>
</symbol></svg>